<mxfile host="app.diagrams.net" modified="2020-12-16T02:11:12.205Z" agent="5.0 (X11; Linux x86_64) AppleWebKit/537.36 (KHTML, like Gecko) Chrome/84.0.4147.125 Safari/537.36" etag="iARRPkKF3L6zd0x2_yqz" version="13.10.2" type="github">
  <diagram id="lJuUDC5pNTYvukRFcrhO" name="Page-1">
    <mxGraphModel dx="1187" dy="672" grid="1" gridSize="10" guides="1" tooltips="1" connect="1" arrows="1" fold="1" page="1" pageScale="1" pageWidth="827" pageHeight="1169" math="0" shadow="0">
      <root>
        <mxCell id="0" />
        <mxCell id="1" parent="0" />
        <mxCell id="7MPljNKpHujNxq9Dve60-50" value="" style="rounded=0;whiteSpace=wrap;html=1;fillColor=#f5f5f5;strokeColor=#666666;fontColor=#333333;" parent="1" vertex="1">
          <mxGeometry x="20" y="760" width="790" height="390" as="geometry" />
        </mxCell>
        <mxCell id="7MPljNKpHujNxq9Dve60-25" style="edgeStyle=orthogonalEdgeStyle;rounded=0;orthogonalLoop=1;jettySize=auto;html=1;entryX=0.5;entryY=0;entryDx=0;entryDy=0;" parent="1" source="7MPljNKpHujNxq9Dve60-1" target="7MPljNKpHujNxq9Dve60-2" edge="1">
          <mxGeometry relative="1" as="geometry" />
        </mxCell>
        <mxCell id="7MPljNKpHujNxq9Dve60-1" value="Actor" style="shape=umlActor;verticalLabelPosition=bottom;verticalAlign=top;html=1;outlineConnect=0;" parent="1" vertex="1">
          <mxGeometry x="290" y="60" width="30" height="60" as="geometry" />
        </mxCell>
        <mxCell id="7MPljNKpHujNxq9Dve60-26" value="" style="edgeStyle=orthogonalEdgeStyle;rounded=0;orthogonalLoop=1;jettySize=auto;html=1;" parent="1" source="7MPljNKpHujNxq9Dve60-2" target="7MPljNKpHujNxq9Dve60-5" edge="1">
          <mxGeometry relative="1" as="geometry" />
        </mxCell>
        <mxCell id="7MPljNKpHujNxq9Dve60-2" value="Cameras" style="rounded=1;whiteSpace=wrap;html=1;" parent="1" vertex="1">
          <mxGeometry x="245" y="170" width="120" height="50" as="geometry" />
        </mxCell>
        <mxCell id="7MPljNKpHujNxq9Dve60-27" style="edgeStyle=orthogonalEdgeStyle;rounded=0;orthogonalLoop=1;jettySize=auto;html=1;" parent="1" source="7MPljNKpHujNxq9Dve60-5" target="7MPljNKpHujNxq9Dve60-6" edge="1">
          <mxGeometry relative="1" as="geometry" />
        </mxCell>
        <mxCell id="7MPljNKpHujNxq9Dve60-28" style="edgeStyle=orthogonalEdgeStyle;rounded=0;orthogonalLoop=1;jettySize=auto;html=1;entryX=0.633;entryY=-0.017;entryDx=0;entryDy=0;entryPerimeter=0;" parent="1" source="7MPljNKpHujNxq9Dve60-5" target="7MPljNKpHujNxq9Dve60-7" edge="1">
          <mxGeometry relative="1" as="geometry" />
        </mxCell>
        <mxCell id="7MPljNKpHujNxq9Dve60-5" value="No lIght" style="rhombus;whiteSpace=wrap;html=1;" parent="1" vertex="1">
          <mxGeometry x="265" y="250" width="80" height="80" as="geometry" />
        </mxCell>
        <mxCell id="7MPljNKpHujNxq9Dve60-29" style="edgeStyle=orthogonalEdgeStyle;rounded=0;orthogonalLoop=1;jettySize=auto;html=1;" parent="1" source="7MPljNKpHujNxq9Dve60-6" target="7MPljNKpHujNxq9Dve60-8" edge="1">
          <mxGeometry relative="1" as="geometry" />
        </mxCell>
        <mxCell id="7MPljNKpHujNxq9Dve60-6" value="IR camera" style="rounded=1;whiteSpace=wrap;html=1;" parent="1" vertex="1">
          <mxGeometry x="140" y="340" width="120" height="60" as="geometry" />
        </mxCell>
        <mxCell id="7MPljNKpHujNxq9Dve60-30" style="edgeStyle=orthogonalEdgeStyle;rounded=0;orthogonalLoop=1;jettySize=auto;html=1;entryX=0.7;entryY=0.033;entryDx=0;entryDy=0;entryPerimeter=0;" parent="1" source="7MPljNKpHujNxq9Dve60-7" target="7MPljNKpHujNxq9Dve60-8" edge="1">
          <mxGeometry relative="1" as="geometry">
            <mxPoint x="330" y="420" as="targetPoint" />
          </mxGeometry>
        </mxCell>
        <mxCell id="7MPljNKpHujNxq9Dve60-7" value="RGB Camera" style="rounded=1;whiteSpace=wrap;html=1;" parent="1" vertex="1">
          <mxGeometry x="365" y="340" width="120" height="60" as="geometry" />
        </mxCell>
        <mxCell id="7MPljNKpHujNxq9Dve60-31" style="edgeStyle=orthogonalEdgeStyle;rounded=0;orthogonalLoop=1;jettySize=auto;html=1;entryX=0.5;entryY=0;entryDx=0;entryDy=0;" parent="1" source="7MPljNKpHujNxq9Dve60-8" target="7MPljNKpHujNxq9Dve60-9" edge="1">
          <mxGeometry relative="1" as="geometry" />
        </mxCell>
        <mxCell id="7MPljNKpHujNxq9Dve60-32" style="edgeStyle=orthogonalEdgeStyle;rounded=0;orthogonalLoop=1;jettySize=auto;html=1;entryX=0.558;entryY=-0.083;entryDx=0;entryDy=0;entryPerimeter=0;" parent="1" source="7MPljNKpHujNxq9Dve60-8" target="7MPljNKpHujNxq9Dve60-10" edge="1">
          <mxGeometry relative="1" as="geometry" />
        </mxCell>
        <mxCell id="7MPljNKpHujNxq9Dve60-33" style="edgeStyle=orthogonalEdgeStyle;rounded=0;orthogonalLoop=1;jettySize=auto;html=1;entryX=0.692;entryY=0.033;entryDx=0;entryDy=0;entryPerimeter=0;" parent="1" source="7MPljNKpHujNxq9Dve60-8" target="7MPljNKpHujNxq9Dve60-11" edge="1">
          <mxGeometry relative="1" as="geometry" />
        </mxCell>
        <mxCell id="7MPljNKpHujNxq9Dve60-8" value="Facedetection/ FaceID" style="rounded=0;whiteSpace=wrap;html=1;" parent="1" vertex="1">
          <mxGeometry x="250" y="430" width="120" height="60" as="geometry" />
        </mxCell>
        <mxCell id="7MPljNKpHujNxq9Dve60-9" value="Enroll Face" style="rounded=0;whiteSpace=wrap;html=1;" parent="1" vertex="1">
          <mxGeometry x="20" y="520" width="120" height="60" as="geometry" />
        </mxCell>
        <mxCell id="7MPljNKpHujNxq9Dve60-10" value="Delete Face" style="rounded=0;whiteSpace=wrap;html=1;" parent="1" vertex="1">
          <mxGeometry x="160" y="520" width="120" height="60" as="geometry" />
        </mxCell>
        <mxCell id="7MPljNKpHujNxq9Dve60-34" value="" style="edgeStyle=orthogonalEdgeStyle;rounded=0;orthogonalLoop=1;jettySize=auto;html=1;" parent="1" source="7MPljNKpHujNxq9Dve60-11" target="7MPljNKpHujNxq9Dve60-13" edge="1">
          <mxGeometry relative="1" as="geometry" />
        </mxCell>
        <mxCell id="7MPljNKpHujNxq9Dve60-11" value="Face Matcher" style="rounded=0;whiteSpace=wrap;html=1;" parent="1" vertex="1">
          <mxGeometry x="310" y="520" width="120" height="60" as="geometry" />
        </mxCell>
        <mxCell id="6KbmqXxEBzS3OsPOvnqm-3" value="" style="edgeStyle=orthogonalEdgeStyle;rounded=0;orthogonalLoop=1;jettySize=auto;html=1;" edge="1" parent="1" source="7MPljNKpHujNxq9Dve60-13" target="6KbmqXxEBzS3OsPOvnqm-2">
          <mxGeometry relative="1" as="geometry" />
        </mxCell>
        <mxCell id="6KbmqXxEBzS3OsPOvnqm-7" style="edgeStyle=orthogonalEdgeStyle;rounded=0;orthogonalLoop=1;jettySize=auto;html=1;" edge="1" parent="1" source="7MPljNKpHujNxq9Dve60-13">
          <mxGeometry relative="1" as="geometry">
            <mxPoint x="450" y="760" as="targetPoint" />
          </mxGeometry>
        </mxCell>
        <mxCell id="7MPljNKpHujNxq9Dve60-13" value="Valid User" style="rhombus;whiteSpace=wrap;html=1;" parent="1" vertex="1">
          <mxGeometry x="330" y="600" width="80" height="80" as="geometry" />
        </mxCell>
        <mxCell id="7MPljNKpHujNxq9Dve60-41" style="edgeStyle=none;rounded=0;orthogonalLoop=1;jettySize=auto;html=1;entryX=0;entryY=0.5;entryDx=0;entryDy=0;" parent="1" source="7MPljNKpHujNxq9Dve60-14" target="7MPljNKpHujNxq9Dve60-19" edge="1">
          <mxGeometry relative="1" as="geometry" />
        </mxCell>
        <mxCell id="7MPljNKpHujNxq9Dve60-14" value="Landmarker" style="rounded=0;whiteSpace=wrap;html=1;" parent="1" vertex="1">
          <mxGeometry x="60" y="790" width="120" height="60" as="geometry" />
        </mxCell>
        <mxCell id="7MPljNKpHujNxq9Dve60-46" value="" style="edgeStyle=none;rounded=0;orthogonalLoop=1;jettySize=auto;html=1;entryX=0.575;entryY=-0.017;entryDx=0;entryDy=0;entryPerimeter=0;" parent="1" source="7MPljNKpHujNxq9Dve60-15" target="7MPljNKpHujNxq9Dve60-20" edge="1">
          <mxGeometry relative="1" as="geometry" />
        </mxCell>
        <mxCell id="7MPljNKpHujNxq9Dve60-15" value="EyeGaze Estimation" style="rounded=0;whiteSpace=wrap;html=1;" parent="1" vertex="1">
          <mxGeometry x="520" y="790" width="120" height="60" as="geometry" />
        </mxCell>
        <mxCell id="7MPljNKpHujNxq9Dve60-45" style="edgeStyle=none;rounded=0;orthogonalLoop=1;jettySize=auto;html=1;entryX=0;entryY=0.5;entryDx=0;entryDy=0;" parent="1" source="7MPljNKpHujNxq9Dve60-16" target="7MPljNKpHujNxq9Dve60-20" edge="1">
          <mxGeometry relative="1" as="geometry" />
        </mxCell>
        <mxCell id="7MPljNKpHujNxq9Dve60-16" value="Headpose Estimation" style="rounded=0;whiteSpace=wrap;html=1;" parent="1" vertex="1">
          <mxGeometry x="390" y="790" width="120" height="60" as="geometry" />
        </mxCell>
        <mxCell id="7MPljNKpHujNxq9Dve60-42" style="edgeStyle=none;rounded=0;orthogonalLoop=1;jettySize=auto;html=1;" parent="1" source="7MPljNKpHujNxq9Dve60-17" target="7MPljNKpHujNxq9Dve60-19" edge="1">
          <mxGeometry relative="1" as="geometry" />
        </mxCell>
        <mxCell id="7MPljNKpHujNxq9Dve60-17" value="Vehicle-based Info&lt;br&gt;(speed/etc)" style="rounded=0;whiteSpace=wrap;html=1;" parent="1" vertex="1">
          <mxGeometry x="245" y="790" width="120" height="60" as="geometry" />
        </mxCell>
        <mxCell id="6KbmqXxEBzS3OsPOvnqm-1" style="edgeStyle=orthogonalEdgeStyle;rounded=0;orthogonalLoop=1;jettySize=auto;html=1;entryX=1;entryY=0.25;entryDx=0;entryDy=0;" edge="1" parent="1" source="7MPljNKpHujNxq9Dve60-18" target="7MPljNKpHujNxq9Dve60-20">
          <mxGeometry relative="1" as="geometry" />
        </mxCell>
        <mxCell id="7MPljNKpHujNxq9Dve60-18" value="Dangerous Behaviour Detection" style="rounded=0;whiteSpace=wrap;html=1;" parent="1" vertex="1">
          <mxGeometry x="670" y="790" width="120" height="60" as="geometry" />
        </mxCell>
        <mxCell id="7MPljNKpHujNxq9Dve60-43" value="" style="edgeStyle=none;rounded=0;orthogonalLoop=1;jettySize=auto;html=1;" parent="1" source="7MPljNKpHujNxq9Dve60-19" target="7MPljNKpHujNxq9Dve60-21" edge="1">
          <mxGeometry relative="1" as="geometry" />
        </mxCell>
        <mxCell id="7MPljNKpHujNxq9Dve60-19" value="Drowsiness Detection" style="rounded=0;whiteSpace=wrap;html=1;" parent="1" vertex="1">
          <mxGeometry x="165" y="870" width="120" height="60" as="geometry" />
        </mxCell>
        <mxCell id="7MPljNKpHujNxq9Dve60-48" value="" style="edgeStyle=none;rounded=0;orthogonalLoop=1;jettySize=auto;html=1;" parent="1" source="7MPljNKpHujNxq9Dve60-20" target="7MPljNKpHujNxq9Dve60-22" edge="1">
          <mxGeometry relative="1" as="geometry" />
        </mxCell>
        <mxCell id="7MPljNKpHujNxq9Dve60-20" value="InAttention Detection" style="rounded=0;whiteSpace=wrap;html=1;" parent="1" vertex="1">
          <mxGeometry x="530" y="870" width="120" height="60" as="geometry" />
        </mxCell>
        <mxCell id="7MPljNKpHujNxq9Dve60-44" value="" style="edgeStyle=none;rounded=0;orthogonalLoop=1;jettySize=auto;html=1;" parent="1" source="7MPljNKpHujNxq9Dve60-21" target="7MPljNKpHujNxq9Dve60-23" edge="1">
          <mxGeometry relative="1" as="geometry" />
        </mxCell>
        <mxCell id="7MPljNKpHujNxq9Dve60-21" value="If level &amp;gt;0" style="rhombus;whiteSpace=wrap;html=1;" parent="1" vertex="1">
          <mxGeometry x="185" y="950" width="80" height="80" as="geometry" />
        </mxCell>
        <mxCell id="7MPljNKpHujNxq9Dve60-49" value="" style="edgeStyle=none;rounded=0;orthogonalLoop=1;jettySize=auto;html=1;" parent="1" source="7MPljNKpHujNxq9Dve60-22" target="7MPljNKpHujNxq9Dve60-24" edge="1">
          <mxGeometry relative="1" as="geometry" />
        </mxCell>
        <mxCell id="7MPljNKpHujNxq9Dve60-22" value="If level &amp;gt;0" style="rhombus;whiteSpace=wrap;html=1;" parent="1" vertex="1">
          <mxGeometry x="540" y="950" width="80" height="80" as="geometry" />
        </mxCell>
        <mxCell id="7MPljNKpHujNxq9Dve60-23" value="Warning" style="ellipse;whiteSpace=wrap;html=1;fillColor=#f8cecc;strokeColor=#b85450;" parent="1" vertex="1">
          <mxGeometry x="165" y="1050" width="120" height="80" as="geometry" />
        </mxCell>
        <mxCell id="7MPljNKpHujNxq9Dve60-24" value="Warning" style="ellipse;whiteSpace=wrap;html=1;fillColor=#f8cecc;strokeColor=#b85450;" parent="1" vertex="1">
          <mxGeometry x="520" y="1050" width="120" height="80" as="geometry" />
        </mxCell>
        <mxCell id="7MPljNKpHujNxq9Dve60-35" value="Yes" style="text;html=1;strokeColor=#6c8ebf;fillColor=#dae8fc;align=center;verticalAlign=middle;whiteSpace=wrap;rounded=0;" parent="1" vertex="1">
          <mxGeometry x="185" y="270" width="40" height="20" as="geometry" />
        </mxCell>
        <mxCell id="7MPljNKpHujNxq9Dve60-36" value="No" style="text;html=1;strokeColor=#6c8ebf;fillColor=#dae8fc;align=center;verticalAlign=middle;whiteSpace=wrap;rounded=0;" parent="1" vertex="1">
          <mxGeometry x="400" y="270" width="40" height="20" as="geometry" />
        </mxCell>
        <mxCell id="7MPljNKpHujNxq9Dve60-56" value="&lt;font style=&quot;font-size: 24px&quot; face=&quot;Tahoma&quot;&gt;&lt;b&gt;&lt;i&gt;DMS Flow&lt;/i&gt;&lt;/b&gt;&lt;/font&gt;" style="text;html=1;strokeColor=none;fillColor=none;align=center;verticalAlign=middle;whiteSpace=wrap;rounded=0;" parent="1" vertex="1">
          <mxGeometry x="10" y="20" width="190" height="40" as="geometry" />
        </mxCell>
        <mxCell id="6KbmqXxEBzS3OsPOvnqm-6" style="edgeStyle=orthogonalEdgeStyle;rounded=0;orthogonalLoop=1;jettySize=auto;html=1;" edge="1" parent="1" source="6KbmqXxEBzS3OsPOvnqm-2">
          <mxGeometry relative="1" as="geometry">
            <mxPoint x="375" y="770" as="targetPoint" />
          </mxGeometry>
        </mxCell>
        <mxCell id="6KbmqXxEBzS3OsPOvnqm-2" value="Adapt Profile" style="rounded=0;whiteSpace=wrap;html=1;" vertex="1" parent="1">
          <mxGeometry x="325" y="700" width="90" height="40" as="geometry" />
        </mxCell>
        <mxCell id="6KbmqXxEBzS3OsPOvnqm-8" value="No" style="text;html=1;strokeColor=#6c8ebf;fillColor=#dae8fc;align=center;verticalAlign=middle;whiteSpace=wrap;rounded=0;" vertex="1" parent="1">
          <mxGeometry x="430" y="620" width="40" height="20" as="geometry" />
        </mxCell>
        <mxCell id="6KbmqXxEBzS3OsPOvnqm-9" value="Yes" style="text;html=1;strokeColor=#6c8ebf;fillColor=#dae8fc;align=center;verticalAlign=middle;whiteSpace=wrap;rounded=0;" vertex="1" parent="1">
          <mxGeometry x="320" y="680" width="40" height="20" as="geometry" />
        </mxCell>
      </root>
    </mxGraphModel>
  </diagram>
</mxfile>
